<mxfile host="app.diagrams.net" modified="2021-03-08T04:00:09.351Z" agent="5.0 (Windows NT 10.0; WOW64) AppleWebKit/537.36 (KHTML, like Gecko) Chrome/75.0.3770.100 Safari/537.36" etag="tVqpRpvwCZpN0QBoM1yH" version="14.2.7" type="github">
  <diagram id="C5RBs43oDa-KdzZeNtuy" name="Page-1">
    <mxGraphModel dx="1944" dy="721" grid="1" gridSize="10" guides="1" tooltips="1" connect="1" arrows="1" fold="1" page="1" pageScale="1" pageWidth="827" pageHeight="1169" math="0" shadow="0">
      <root>
        <mxCell id="WIyWlLk6GJQsqaUBKTNV-0" />
        <mxCell id="WIyWlLk6GJQsqaUBKTNV-1" parent="WIyWlLk6GJQsqaUBKTNV-0" />
        <mxCell id="8oX7TRZI3J1zvrFNZ57--19" style="edgeStyle=orthogonalEdgeStyle;rounded=0;orthogonalLoop=1;jettySize=auto;html=1;" edge="1" parent="WIyWlLk6GJQsqaUBKTNV-1" source="8oX7TRZI3J1zvrFNZ57--0">
          <mxGeometry relative="1" as="geometry">
            <mxPoint x="-130" y="440" as="targetPoint" />
          </mxGeometry>
        </mxCell>
        <mxCell id="8oX7TRZI3J1zvrFNZ57--20" style="edgeStyle=orthogonalEdgeStyle;rounded=0;orthogonalLoop=1;jettySize=auto;html=1;" edge="1" parent="WIyWlLk6GJQsqaUBKTNV-1" source="8oX7TRZI3J1zvrFNZ57--0">
          <mxGeometry relative="1" as="geometry">
            <mxPoint x="60" y="440" as="targetPoint" />
          </mxGeometry>
        </mxCell>
        <mxCell id="8oX7TRZI3J1zvrFNZ57--0" value="内容为空" style="rounded=0;whiteSpace=wrap;html=1;" vertex="1" parent="WIyWlLk6GJQsqaUBKTNV-1">
          <mxGeometry x="-100" y="370" width="120" height="60" as="geometry" />
        </mxCell>
        <mxCell id="8oX7TRZI3J1zvrFNZ57--1" value="内容错误" style="rounded=0;whiteSpace=wrap;html=1;" vertex="1" parent="WIyWlLk6GJQsqaUBKTNV-1">
          <mxGeometry x="210" y="555" width="120" height="60" as="geometry" />
        </mxCell>
        <mxCell id="8oX7TRZI3J1zvrFNZ57--2" value="账号登陆" style="rounded=0;whiteSpace=wrap;html=1;" vertex="1" parent="WIyWlLk6GJQsqaUBKTNV-1">
          <mxGeometry x="220" y="40" width="120" height="60" as="geometry" />
        </mxCell>
        <mxCell id="8oX7TRZI3J1zvrFNZ57--3" value="点击登录按钮" style="shape=parallelogram;perimeter=parallelogramPerimeter;whiteSpace=wrap;html=1;fixedSize=1;" vertex="1" parent="WIyWlLk6GJQsqaUBKTNV-1">
          <mxGeometry x="190" y="150" width="120" height="60" as="geometry" />
        </mxCell>
        <mxCell id="8oX7TRZI3J1zvrFNZ57--26" style="edgeStyle=orthogonalEdgeStyle;rounded=0;orthogonalLoop=1;jettySize=auto;html=1;exitX=0;exitY=0.5;exitDx=0;exitDy=0;entryX=0.633;entryY=-0.056;entryDx=0;entryDy=0;entryPerimeter=0;" edge="1" parent="WIyWlLk6GJQsqaUBKTNV-1" source="8oX7TRZI3J1zvrFNZ57--4" target="8oX7TRZI3J1zvrFNZ57--0">
          <mxGeometry relative="1" as="geometry" />
        </mxCell>
        <mxCell id="8oX7TRZI3J1zvrFNZ57--27" style="edgeStyle=orthogonalEdgeStyle;rounded=0;orthogonalLoop=1;jettySize=auto;html=1;entryX=0.5;entryY=0;entryDx=0;entryDy=0;" edge="1" parent="WIyWlLk6GJQsqaUBKTNV-1" source="8oX7TRZI3J1zvrFNZ57--4" target="8oX7TRZI3J1zvrFNZ57--7">
          <mxGeometry relative="1" as="geometry" />
        </mxCell>
        <mxCell id="8oX7TRZI3J1zvrFNZ57--4" value="内容是否为空" style="rhombus;whiteSpace=wrap;html=1;" vertex="1" parent="WIyWlLk6GJQsqaUBKTNV-1">
          <mxGeometry x="130" y="250" width="130" height="60" as="geometry" />
        </mxCell>
        <mxCell id="8oX7TRZI3J1zvrFNZ57--29" style="edgeStyle=orthogonalEdgeStyle;rounded=0;orthogonalLoop=1;jettySize=auto;html=1;entryX=0.5;entryY=0;entryDx=0;entryDy=0;" edge="1" parent="WIyWlLk6GJQsqaUBKTNV-1" source="8oX7TRZI3J1zvrFNZ57--5" target="8oX7TRZI3J1zvrFNZ57--1">
          <mxGeometry relative="1" as="geometry" />
        </mxCell>
        <mxCell id="8oX7TRZI3J1zvrFNZ57--30" style="edgeStyle=orthogonalEdgeStyle;rounded=0;orthogonalLoop=1;jettySize=auto;html=1;entryX=0.5;entryY=0;entryDx=0;entryDy=0;" edge="1" parent="WIyWlLk6GJQsqaUBKTNV-1" source="8oX7TRZI3J1zvrFNZ57--5" target="8oX7TRZI3J1zvrFNZ57--6">
          <mxGeometry relative="1" as="geometry" />
        </mxCell>
        <mxCell id="8oX7TRZI3J1zvrFNZ57--5" value="内容是否错误" style="rhombus;whiteSpace=wrap;html=1;" vertex="1" parent="WIyWlLk6GJQsqaUBKTNV-1">
          <mxGeometry x="349" y="480" width="130" height="60" as="geometry" />
        </mxCell>
        <mxCell id="8oX7TRZI3J1zvrFNZ57--6" value="内容无误" style="rounded=0;whiteSpace=wrap;html=1;" vertex="1" parent="WIyWlLk6GJQsqaUBKTNV-1">
          <mxGeometry x="500" y="555" width="120" height="60" as="geometry" />
        </mxCell>
        <mxCell id="8oX7TRZI3J1zvrFNZ57--28" style="edgeStyle=orthogonalEdgeStyle;rounded=0;orthogonalLoop=1;jettySize=auto;html=1;exitX=0.5;exitY=1;exitDx=0;exitDy=0;entryX=0.5;entryY=0;entryDx=0;entryDy=0;" edge="1" parent="WIyWlLk6GJQsqaUBKTNV-1" source="8oX7TRZI3J1zvrFNZ57--7" target="8oX7TRZI3J1zvrFNZ57--5">
          <mxGeometry relative="1" as="geometry" />
        </mxCell>
        <mxCell id="8oX7TRZI3J1zvrFNZ57--7" value="内容不为空" style="rounded=0;whiteSpace=wrap;html=1;" vertex="1" parent="WIyWlLk6GJQsqaUBKTNV-1">
          <mxGeometry x="354" y="370" width="120" height="60" as="geometry" />
        </mxCell>
        <mxCell id="8oX7TRZI3J1zvrFNZ57--21" style="edgeStyle=orthogonalEdgeStyle;rounded=0;orthogonalLoop=1;jettySize=auto;html=1;entryX=0.5;entryY=0;entryDx=0;entryDy=0;" edge="1" parent="WIyWlLk6GJQsqaUBKTNV-1" source="8oX7TRZI3J1zvrFNZ57--12" target="8oX7TRZI3J1zvrFNZ57--14">
          <mxGeometry relative="1" as="geometry" />
        </mxCell>
        <mxCell id="8oX7TRZI3J1zvrFNZ57--22" style="edgeStyle=orthogonalEdgeStyle;rounded=0;orthogonalLoop=1;jettySize=auto;html=1;entryX=0.5;entryY=0;entryDx=0;entryDy=0;" edge="1" parent="WIyWlLk6GJQsqaUBKTNV-1" source="8oX7TRZI3J1zvrFNZ57--12" target="8oX7TRZI3J1zvrFNZ57--15">
          <mxGeometry relative="1" as="geometry" />
        </mxCell>
        <mxCell id="8oX7TRZI3J1zvrFNZ57--12" value="一个内容为空" style="rounded=0;whiteSpace=wrap;html=1;" vertex="1" parent="WIyWlLk6GJQsqaUBKTNV-1">
          <mxGeometry x="-170" y="450" width="80" height="50" as="geometry" />
        </mxCell>
        <mxCell id="8oX7TRZI3J1zvrFNZ57--25" style="edgeStyle=orthogonalEdgeStyle;rounded=0;orthogonalLoop=1;jettySize=auto;html=1;" edge="1" parent="WIyWlLk6GJQsqaUBKTNV-1" source="8oX7TRZI3J1zvrFNZ57--13" target="8oX7TRZI3J1zvrFNZ57--18">
          <mxGeometry relative="1" as="geometry" />
        </mxCell>
        <mxCell id="8oX7TRZI3J1zvrFNZ57--13" value="两个内容为空" style="rounded=0;whiteSpace=wrap;html=1;" vertex="1" parent="WIyWlLk6GJQsqaUBKTNV-1">
          <mxGeometry x="10" y="450" width="80" height="50" as="geometry" />
        </mxCell>
        <mxCell id="8oX7TRZI3J1zvrFNZ57--23" style="edgeStyle=orthogonalEdgeStyle;rounded=0;orthogonalLoop=1;jettySize=auto;html=1;entryX=0.5;entryY=0;entryDx=0;entryDy=0;" edge="1" parent="WIyWlLk6GJQsqaUBKTNV-1" source="8oX7TRZI3J1zvrFNZ57--14" target="8oX7TRZI3J1zvrFNZ57--16">
          <mxGeometry relative="1" as="geometry" />
        </mxCell>
        <mxCell id="8oX7TRZI3J1zvrFNZ57--14" value="账号框为空" style="rounded=0;whiteSpace=wrap;html=1;" vertex="1" parent="WIyWlLk6GJQsqaUBKTNV-1">
          <mxGeometry x="-260" y="550" width="100" height="30" as="geometry" />
        </mxCell>
        <mxCell id="8oX7TRZI3J1zvrFNZ57--24" style="edgeStyle=orthogonalEdgeStyle;rounded=0;orthogonalLoop=1;jettySize=auto;html=1;entryX=0.5;entryY=0;entryDx=0;entryDy=0;" edge="1" parent="WIyWlLk6GJQsqaUBKTNV-1" source="8oX7TRZI3J1zvrFNZ57--15" target="8oX7TRZI3J1zvrFNZ57--17">
          <mxGeometry relative="1" as="geometry" />
        </mxCell>
        <mxCell id="8oX7TRZI3J1zvrFNZ57--15" value="密码框为空" style="rounded=0;whiteSpace=wrap;html=1;" vertex="1" parent="WIyWlLk6GJQsqaUBKTNV-1">
          <mxGeometry x="-120" y="550" width="100" height="30" as="geometry" />
        </mxCell>
        <mxCell id="8oX7TRZI3J1zvrFNZ57--16" value="&lt;span&gt;光标聚焦账号框，并高亮&lt;/span&gt;&lt;br&gt;&lt;span&gt;以气泡形式提示：请输入登陆名&lt;/span&gt;" style="shape=document;whiteSpace=wrap;html=1;boundedLbl=1;" vertex="1" parent="WIyWlLk6GJQsqaUBKTNV-1">
          <mxGeometry x="-270" y="640" width="120" height="80" as="geometry" />
        </mxCell>
        <mxCell id="8oX7TRZI3J1zvrFNZ57--17" value="&lt;span&gt;光标聚焦第密码框，并高亮&lt;/span&gt;&lt;br&gt;&lt;span&gt;以气泡形式提示：请输入密码&lt;/span&gt;" style="shape=document;whiteSpace=wrap;html=1;boundedLbl=1;" vertex="1" parent="WIyWlLk6GJQsqaUBKTNV-1">
          <mxGeometry x="-130" y="640" width="120" height="80" as="geometry" />
        </mxCell>
        <mxCell id="8oX7TRZI3J1zvrFNZ57--18" value="&lt;span&gt;光标聚焦账号框，并高亮&lt;/span&gt;&lt;br&gt;&lt;span&gt;以气泡形式提示：请输入登陆名&lt;/span&gt;" style="shape=document;whiteSpace=wrap;html=1;boundedLbl=1;" vertex="1" parent="WIyWlLk6GJQsqaUBKTNV-1">
          <mxGeometry x="30" y="640" width="120" height="80" as="geometry" />
        </mxCell>
        <mxCell id="8oX7TRZI3J1zvrFNZ57--32" value="填写验证码" style="shape=parallelogram;perimeter=parallelogramPerimeter;whiteSpace=wrap;html=1;fixedSize=1;" vertex="1" parent="WIyWlLk6GJQsqaUBKTNV-1">
          <mxGeometry x="370" y="670" width="120" height="60" as="geometry" />
        </mxCell>
        <mxCell id="8oX7TRZI3J1zvrFNZ57--36" style="edgeStyle=orthogonalEdgeStyle;rounded=0;orthogonalLoop=1;jettySize=auto;html=1;" edge="1" parent="WIyWlLk6GJQsqaUBKTNV-1" source="8oX7TRZI3J1zvrFNZ57--34">
          <mxGeometry relative="1" as="geometry">
            <mxPoint x="140" y="879.9999999999998" as="targetPoint" />
          </mxGeometry>
        </mxCell>
        <mxCell id="8oX7TRZI3J1zvrFNZ57--42" value="yes" style="edgeLabel;html=1;align=center;verticalAlign=middle;resizable=0;points=[];" vertex="1" connectable="0" parent="8oX7TRZI3J1zvrFNZ57--36">
          <mxGeometry x="-0.3681" y="1" relative="1" as="geometry">
            <mxPoint as="offset" />
          </mxGeometry>
        </mxCell>
        <mxCell id="8oX7TRZI3J1zvrFNZ57--40" style="edgeStyle=orthogonalEdgeStyle;rounded=0;orthogonalLoop=1;jettySize=auto;html=1;entryX=0.5;entryY=0;entryDx=0;entryDy=0;exitX=1;exitY=0.5;exitDx=0;exitDy=0;" edge="1" parent="WIyWlLk6GJQsqaUBKTNV-1" source="8oX7TRZI3J1zvrFNZ57--34" target="8oX7TRZI3J1zvrFNZ57--39">
          <mxGeometry relative="1" as="geometry" />
        </mxCell>
        <mxCell id="8oX7TRZI3J1zvrFNZ57--41" value="no" style="edgeLabel;html=1;align=center;verticalAlign=middle;resizable=0;points=[];" vertex="1" connectable="0" parent="8oX7TRZI3J1zvrFNZ57--40">
          <mxGeometry x="-0.2177" y="-1" relative="1" as="geometry">
            <mxPoint as="offset" />
          </mxGeometry>
        </mxCell>
        <mxCell id="8oX7TRZI3J1zvrFNZ57--34" value="验证是否正确" style="rhombus;whiteSpace=wrap;html=1;" vertex="1" parent="WIyWlLk6GJQsqaUBKTNV-1">
          <mxGeometry x="205" y="770" width="130" height="60" as="geometry" />
        </mxCell>
        <mxCell id="8oX7TRZI3J1zvrFNZ57--38" value="光标聚焦账号框，并高亮&lt;br&gt;以气泡形式提示：请输入正确的账号或密码" style="shape=document;whiteSpace=wrap;html=1;boundedLbl=1;" vertex="1" parent="WIyWlLk6GJQsqaUBKTNV-1">
          <mxGeometry x="80" y="880" width="170" height="120" as="geometry" />
        </mxCell>
        <mxCell id="8oX7TRZI3J1zvrFNZ57--39" value="光标聚焦账号框，并高亮&lt;br&gt;以气泡形式提示：请输入正确的账号或密码&lt;br&gt;&lt;br&gt;更换验证码" style="shape=document;whiteSpace=wrap;html=1;boundedLbl=1;" vertex="1" parent="WIyWlLk6GJQsqaUBKTNV-1">
          <mxGeometry x="290" y="880" width="170" height="120" as="geometry" />
        </mxCell>
      </root>
    </mxGraphModel>
  </diagram>
</mxfile>
